PathFileType	4	(X/Y/Z)	/Users/itak/Documents/Research/Walk-IL/dataset/trc/00163_00008.trc
DataRate	CameraRate	NumFrames	NumMarkers	Units	OrigDataRate	OrigDataStartFrame	OrigNumFrames
100.000000	100.000000	4	53	mm	100.000000	276	552
Frame#	Time	RPSI			LPSI			L3			STRN			T10			C7			CLAV			RBAK			LBAK			LSHO			LUPA			LAEL			LAOL			LWTS			LWPS			LFRA			LIFD			LHPS			LHTS			RSHO			RUPA			RAEL			RAOL			RWTS			RWPS			RFRA			RIFD			RHTS			RHPS			RBHD			LFHD			RFHD			LBHD			LHIP			RHIP			RASI			LASI			LKNE			LTHI			LANK			LTIP			LTOE			LMT1			LMT5			LHEE			RKNE			RTHI			RANK			RTIP			RTOE			RMT1			RMT5			RHEE			
		X1	Y1	Z1	X2	Y2	Z2	X3	Y3	Z3	X4	Y4	Z4	X5	Y5	Z5	X6	Y6	Z6	X7	Y7	Z7	X8	Y8	Z8	X9	Y9	Z9	X10	Y10	Z10	X11	Y11	Z11	X12	Y12	Z12	X13	Y13	Z13	X14	Y14	Z14	X15	Y15	Z15	X16	Y16	Z16	X17	Y17	Z17	X18	Y18	Z18	X19	Y19	Z19	X20	Y20	Z20	X21	Y21	Z21	X22	Y22	Z22	X23	Y23	Z23	X24	Y24	Z24	X25	Y25	Z25	X26	Y26	Z26	X27	Y27	Z27	X28	Y28	Z28	X29	Y29	Z29	X30	Y30	Z30	X31	Y31	Z31	X32	Y32	Z32	X33	Y33	Z33	X34	Y34	Z34	X35	Y35	Z35	X36	Y36	Z36	X37	Y37	Z37	X38	Y38	Z38	X39	Y39	Z39	X40	Y40	Z40	X41	Y41	Z41	X42	Y42	Z42	X43	Y43	Z43	X44	Y44	Z44	X45	Y45	Z45	X46	Y46	Z46	X47	Y47	Z47	X48	Y48	Z48	X49	Y49	Z49	X50	Y50	Z50	X51	Y51	Z51	X52	Y52	Z52	X53	Y53	Z53	

277	2.76	-1150.64892578125	1023.240417480469	-7.158525943756104	-1147.308715820312	1030.354858398438	-130.1676330566406	-1147.139892578125	1067.101928710938	-67.36903381347656	-868.322265625	1257.549072265625	-52.97037124633789	-1165.901489257812	1234.461791992188	-84.42030334472656	-1072.140380859375	1496.317626953125	-86.94013214111328	-882.1455078125	1375.04150390625	-62.44483184814453	-1167.504272460938	1326.7294921875	11.99673271179199	-1068.755126953125	1474.186279296875	-189.8887481689453	-981.4963989257812	1455.562622070312	-256.3862609863281	-996.9098510742188	1328.164916992188	-339.9021911621094	-948.1087036132812	1117.523071289062	-374.2016906738281	-1006.998596191406	1088.313354492188	-314.9967346191406	-789.3148193359375	920.3046264648438	-329.4856262207031	-852.7139282226562	880.478271484375	-385.6374816894531	-905.60205078125	1013.398071289062	-389.239990234375	-716.8411865234375	751.6605224609375	-308.6029052734375	-810.2792358398438	819.3425903320312	-378.3023071289062	-751.6307373046875	852.7123413085938	-349.4998474121094	-1032.263427734375	1465.427001953125	99.1351318359375	-1064.65869140625	1400.430297851562	164.0030975341797	-1108.378784179688	1116.07470703125	222.1801300048828	-1092.912719726562	1103.464721679688	124.6871566772461	-959.6607055664062	898.7711181640625	249.780517578125	-1041.982055664062	874.8793334960938	272.8765869140625	-1086.982299804688	1044.630249023438	248.1389465332031	-917.357177734375	713.3231201171875	241.5196228027344	-929.3524780273438	808.3292846679688	268.5241394042969	-1007.342102050781	794.2279052734375	280.4130859375	-1014.611389160156	1643.73193359375	2.404250860214233	-850.1774291992188	1694.556274414062	-130.0552215576172	-847.3014526367188	1691.713134765625	-0.3776503205299377	-1024.6396484375	1654.22509765625	-135.0783996582031	-1042.559692382812	970.9989624023438	-245.40869140625	-1003.269592285156	976.573974609375	123.7922210693359	-921.0302734375	1006.061889648438	70.80513000488281	-916.155517578125	1001.01513671875	-188.7771148681641	-1087.351196289062	480.1955871582031	-177.3175811767578	-1059.602905273438	619.99365234375	-212.4272613525391	-1262.953002929688	43.88911437988281	-139.6291046142578	-1172.463134765625	265.1225280761719	-171.1808013916016	-1042.252563476562	40.73008728027344	-122.3348083496094	-1091.078979492188	42.86341857910156	-74.18314361572266	-1158.093383789062	32.6076545715332	-185.4878387451172	-1311.044067382812	50.4739875793457	-67.61376190185547	-809.3043212890625	518.6259155273438	105.9239120483398	-896.0872802734375	769.8395385742188	136.4329528808594	-654.9266967773438	47.99435806274414	99.08505249023438	-750.9087524414062	421.8231201171875	93.41249847412109	-478.5619812011719	169.9243774414062	91.67395782470703	-513.317138671875	140.6822967529297	39.107666015625	-556.620361328125	91.28415679931641	144.4539184570312	-698.7586669921875	35.55126190185547	27.58028411865234	
278	2.77	-1140.708740234375	1021.579650878906	-6.484992027282715	-1137.724731445312	1028.812377929688	-129.5361785888672	-1137.380737304688	1065.463256835938	-66.72120666503906	-858.6273803710938	1256.003784179688	-52.51080703735352	-1156.330444335938	1232.814453125	-83.50391387939453	-1062.671142578125	1494.774291992188	-85.63230895996094	-872.4962768554688	1373.46875	-61.70285034179688	-1157.829956054688	1324.853393554688	13.09780597686768	-1059.347778320312	1472.673461914062	-188.6076354980469	-972.41162109375	1454.153930664062	-255.4947357177734	-988.7332763671875	1326.548461914062	-338.825439453125	-941.6205444335938	1115.356811523438	-372.5906066894531	-1000.088623046875	1086.616821289062	-312.7453308105469	-783.737548828125	917.4713134765625	-327.6134033203125	-847.4657592773438	877.7190551757812	-383.3630981445312	-899.758056640625	1010.912963867188	-387.3512268066406	-712.1132202148438	748.5491333007812	-306.2274475097656	-805.3782348632812	816.3762817382812	-375.8819274902344	-746.4945068359375	849.6178588867188	-347.4367370605469	-1022.516052246094	1463.39599609375	100.3545989990234	-1054.874267578125	1398.273803710938	165.0784149169922	-1098.859985351562	1114.301391601562	223.0850067138672	-1083.202392578125	1101.334106445312	125.6606674194336	-953.1554565429688	895.1997680664062	251.8426666259766	-1035.838012695312	872.8145751953125	275.0692138671875	-1078.2900390625	1042.939453125	249.3284759521484	-914.2659301757812	708.7598266601562	244.6449127197266	-924.3931884765625	804.2679443359375	271.0578002929688	-1002.607482910156	791.7032470703125	283.0989074707031	-1005.314086914062	1641.711547851562	4.227492332458496	-841.0730590820312	1693.471435546875	-128.0743560791016	-838.0593872070312	1689.93994140625	1.600518107414246	-1015.488403320312	1652.90380859375	-133.1781768798828	-1033.491943359375	969.5272216796875	-245.1734924316406	-992.6361083984375	975.0657958984375	124.0810623168945	-910.7010498046875	1004.384765625	70.80709838867188	-906.7554321289062	999.3474731445312	-188.8348083496094	-1080.745971679688	479.1828308105469	-177.1959228515625	-1052.34912109375	618.904541015625	-212.3105010986328	-1262.7294921875	44.88234329223633	-139.4848937988281	-1168.950317382812	265.1273803710938	-170.9272613525391	-1042.210327148438	40.70600509643555	-122.2930068969727	-1090.999389648438	42.89916229248047	-74.17439270019531	-1158.016479492188	32.67853546142578	-185.3352508544922	-1310.840209960938	52.4556884765625	-67.51255798339844	-798.1172485351562	517.7702026367188	105.3684158325195	-885.1441650390625	768.6715087890625	136.2298889160156	-646.1539306640625	46.13162994384766	98.48197937011719	-739.8451538085938	420.282470703125	92.726806640625	-469.1305541992188	166.927978515625	89.61916351318359	-504.325927734375	137.7527160644531	37.3227424621582	-547.201416015625	88.90604400634766	143.0720825195312	-690.3861083984375	33.788818359375	27.14274406433105	
279	2.78	-1130.594848632812	1020.080261230469	-5.672075748443604	-1127.98974609375	1027.427612304688	-128.7507781982422	-1127.453247070312	1063.96728515625	-65.94142150878906	-848.7517700195312	1254.602416992188	-51.95166397094727	-1146.568725585938	1231.295043945312	-82.49551391601562	-1053.049072265625	1493.376098632812	-84.26385498046875	-862.6846923828125	1372.032592773438	-60.86974716186523	-1147.995361328125	1323.112182617188	14.25879287719727	-1049.73974609375	1471.239379882812	-187.2608032226562	-963.1575927734375	1452.858154296875	-254.5357208251953	-980.4362182617188	1325.031494140625	-337.6545104980469	-935.2023315429688	1113.254028320312	-370.8107299804688	-993.1763305664062	1085.042724609375	-310.2005310058594	-778.4490966796875	914.5042724609375	-325.6997375488281	-842.6253662109375	874.9160766601562	-380.9825439453125	-894.1399536132812	1008.451416015625	-385.3193054199219	-707.9680786132812	745.1830444335938	-303.8717651367188	-800.9488525390625	813.3155517578125	-373.3778991699219	-741.76953125	846.3441772460938	-345.3384399414062	-1012.626831054688	1461.526733398438	101.6384353637695	-1044.975463867188	1396.276489257812	166.2150115966797	-1089.256103515625	1112.6767578125	223.9884948730469	-1073.382690429688	1099.367065429688	126.6345977783203	-946.590576171875	891.8192138671875	253.8760070800781	-1029.602294921875	870.9315185546875	277.1700134277344	-1069.513061523438	1041.39501953125	250.4997100830078	-911.0831298828125	704.44091796875	247.6899566650391	-919.369384765625	800.433349609375	273.5535278320312	-997.7625122070312	789.3960571289062	285.6872863769531	-995.9329223632812	1639.840087890625	6.087100982666016	-831.881591796875	1692.55712890625	-126.0346984863281	-828.7424926757812	1688.36328125	3.636981248855591	-1006.232177734375	1651.698608398438	-131.2429351806641	-1024.342651367188	968.1829223632812	-244.7915191650391	-981.8449096679688	973.70458984375	124.4329528808594	-900.1759643554688	1002.806884765625	70.86320495605469	-897.2318725585938	997.7888793945312	-188.8390808105469	-1074.06640625	478.3190612792969	-177.1109008789062	-1044.965209960938	617.9544067382812	-212.1607666015625	-1262.4443359375	46.08695983886719	-139.4448699951172	-1165.367065429688	265.3504333496094	-170.7545623779297	-1042.17626953125	40.68491744995117	-122.2610702514648	-1090.925659179688	42.94188690185547	-74.1785888671875	-1157.90234375	32.74731063842773	-185.2033233642578	-1310.578857421875	54.79696273803711	-67.51826477050781	-786.7255249023438	517.0016479492188	104.8109359741211	-873.8541870117188	767.7627563476562	136.0747528076172	-639.1815185546875	43.80189514160156	97.89780426025391	-728.8333740234375	418.4865112304688	92.01319122314453	-460.8861389160156	162.5944061279297	87.74818420410156	-496.6392211914062	133.6301422119141	35.66943740844727	-539.5112915039062	85.56497955322266	141.7305450439453	-683.7283935546875	31.72658729553223	26.5585880279541	
280	2.79	-1120.290771484375	1018.768432617188	-4.695911884307861	-1118.095825195312	1026.222534179688	-127.7915420532227	-1117.346923828125	1062.636962890625	-65.00803375244141	-838.6861572265625	1253.372802734375	-51.2910041809082	-1136.608642578125	1229.929443359375	-81.37511444091797	-1043.26806640625	1492.153198242188	-82.83303070068359	-852.7101440429688	1370.760620117188	-59.94904708862305	-1137.99072265625	1321.534912109375	15.49115180969238	-1039.940185546875	1469.918823242188	-185.8486633300781	-953.7281494140625	1451.696899414062	-253.5054931640625	-972.0115966796875	1323.637817382812	-336.3845520019531	-928.827392578125	1111.245361328125	-368.8611755371094	-986.2765502929688	1083.64990234375	-307.3808898925781	-773.4522094726562	911.4249267578125	-323.7549133300781	-838.1924438476562	872.0983276367188	-378.5043334960938	-888.7360229492188	1006.048461914062	-383.1462097167969	-704.3755493164062	741.5938110351562	-301.5472717285156	-796.9891357421875	810.1939086914062	-370.808349609375	-737.4562377929688	842.9082641601562	-343.2208862304688	-1002.587524414062	1459.848266601562	102.9937286376953	-1034.95166015625	1394.469604492188	167.4188995361328	-1079.578125	1111.228881835938	224.8883514404297	-1063.454833984375	1097.597534179688	127.6067886352539	-939.9567260742188	888.6686401367188	255.8798980712891	-1023.276977539062	869.2466430664062	279.148681640625	-1060.661987304688	1040.02001953125	251.6463623046875	-907.7607421875	700.4241943359375	250.6383056640625	-914.2682495117188	796.8702392578125	276.009033203125	-992.8016357421875	787.3265991210938	288.143310546875	-986.4613647460938	1638.145629882812	7.9779953956604	-822.5934448242188	1691.8427734375	-123.9411163330078	-819.34912109375	1687.013916015625	5.725327491760254	-996.8605346679688	1650.635131835938	-129.2776641845703	-1015.073059082031	966.9887084960938	-244.2377166748047	-970.8810424804688	972.5132446289062	124.8602447509766	-889.438232421875	1001.354187011719	70.97595977783203	-887.5767211914062	996.3764038085938	-188.7927856445312	-1067.270751953125	477.6246032714844	-177.0727081298828	-1037.417236328125	617.168701171875	-211.9906616210938	-1262.078735351562	47.54560089111328	-139.5471038818359	-1161.664916992188	265.8140258789062	-170.7111206054688	-1042.143310546875	40.66183090209961	-122.2403717041016	-1090.844970703125	42.99634170532227	-74.22834777832031	-1157.739501953125	32.81575012207031	-185.1040649414062	-1310.242431640625	57.52795791625977	-67.67790222167969	-775.2092895507812	516.3113403320312	104.2510604858398	-862.2310791015625	767.0934448242188	135.9776763916016	-633.8026123046875	41.20842742919922	97.33987426757812	-717.9378662109375	416.5117492675781	91.27418518066406	-453.6327514648438	157.0633239746094	86.06986999511719	-490.0587158203125	128.4745941162109	34.15405654907227	-533.3466186523438	81.41951751708984	140.4275054931641	-678.6184692382812	29.59592819213867	25.89733695983887	
